<?xml version="1.0" encoding="utf-8"?>
<!-- Generator: Adobe Illustrator 19.1.0, SVG Export Plug-In . SVG Version: 6.00 Build 0)  -->
<svg version="1.1" id="Layer_1" xmlns="http://www.w3.org/2000/svg" xmlns:xlink="http://www.w3.org/1999/xlink" x="0px" y="0px"
	 viewBox="0 0 590.6 520.1" style="enable-background:new 0 0 590.6 520.1;" xml:space="preserve">
<style type="text/css">
	.st0{fill-rule:evenodd;clip-rule:evenodd;fill:#222222;}
</style>
<g>
	<path class="st0" d="M455.3,237.2c3.5,8.7-7.7,19.1,5.5,23.4c6.8,2.2,15.5-0.9,21.5-4.4c16.4-9.7,19.7-31.8,9.7-47.5
		c-8.6-13.6-26.5-13.7-40.3-11.7c-14.7,2.1-31.4,11.7-41.2,22.5c-5.4,6-10.1,12.2-14.3,19.4c-1.9,3.3-4.8,7.4-5.9,10.5
		c-0.5,1.4-0.9,12.6-5,11.7c-2.8-3.7,4.6-15.5,6.3-18.4c2.6-4.8,5.3-9.3,8.8-13.8c6.5-8.4,12.7-16.2,21.4-21.8
		c9.6-6.3,25.2-11.9,39.4-12.6c15.9-0.8,33.9,6.1,40.9,19.1c9.7,18-6.5,38.5-21.2,45.8c-9.4,4.7-23.1,4.7-28.8-2.8
		C448.3,251.6,443.9,235.8,455.3,237.2C455.7,238.3,453.6,237,455.3,237.2z"/>
	<path class="st0" d="M579.3,262.8c1.6,2.7-0.8,8-3.8,8c-2.5-8.7-3.1-17.9-12.6-17.6c-7.1,0.2-11.5,3.8-15.6,10.4
		c-8.4,13.3-9.4,26.6-8.7,41.1c0.5,10.2,1.4,21.2,2.7,31.5c1.3,10.6,0.2,22.2-0.2,32.6c-0.6,13-6.3,27.2-13,39
		c-12,21-32.3,38-55.4,42.3c-9.5,1.8-19.3,1.7-29.2-1.7c-10.2-3.5-21.5-7.1-26.8-17.4c-0.6-1.2-1.2-5.9-2.2-6.6
		c-1.2-0.9-2.3,0.2-3.8,0.5c-3.9,0.8-8.8,3-12.9,4.6c-3.9,1.5-6.2,2.8-9.6,4.2c-8.6,3.6-16.3,6.3-17.6,17.1c-0.7,5.7,1.9,9,3,13.9
		c1.9,8.8-4.9,2.2-9.2,2.9c-0.8-6.2,0.1-15.2,2.8-21.2c3.9-8.5,13.6-11.5,21.7-14.3c7.1-2.5,13.7-4.9,20.2-7.7
		c0.4-0.2,3.8-1.4,4.2-2c0.9-1.5-1.9-7.7-2.5-10.2c-1.3-5.4-1.6-9.3-1.2-14.9c0.1-1.2,0.3-3.1,0.4-4.8c0-0.3-1.2-1.1-1.2-1.5
		c0.2-1.5,1.2-2.2,1.6-3.6c0.9-2.5,0.9-7.3,2.6-9.5c1-1.3,3.5-2.5,5.6-2.1c3.5,0.8,2.4,1.1,0.9,3.8c-2.7,5-7.9,8-8.6,13.8
		c-0.5,3.7-0.5,7.5,0,11.1c0.6,4.5,1.8,15.9,6.5,16c4.5,0.1,11.8-6.4,14.4-8.7c2.5-2.1,4.2-3,6.4-6c1.6-2.2,2.5-4.6,3.1-7.4
		c1.1-5.3,1.9-5,3.4-0.4c3.5,10.9,9.8,20.9,22.8,14.4c6.1-3.1,11.8-7.2,15.9-11.5c16.7-17.7,9.9-44.5,8.9-66c-0.5-10.2-1-21.3,2-31
		c1.9-6,4.1-11,7.1-16.3c3.8-6.7,14.9-17.5,23-8c1.2,1.4,1.6,3,2.7,4.4c0.5,0.6,2.8,2.5,2.9,2.7c0.6,1.2,1.2,3,0.7,4.4
		c-0.4,1-4.2,3.7-5.9,2c-1.4-1.4,0.6-5.6,0.4-7.1c-0.1-0.7-0.7-2-1-2.6c-0.6-1.1-2.4-3-3.9-3.9c-10.3-6-17.4,9.1-20.2,17.4
		c-1.3,3.9-2.8,6.4-3,10.7c-0.3,5.6,1.1,12.3,2.2,18.2c3.4,17.1,9.1,36.4,1.1,53.1c-3.8,7.9-7.2,15-12.8,21.5
		c-6,7-20.5,18.4-31.1,15.6c-4.5-1.2-12.3-7.6-11.7-13.1c-2-0.2-3.1,2.8-4.1,4.1c-2.7,3.3-6.2,5.6-9.8,8.1c-3.1,2.2-6.3,3.6-9.4,5
		c-0.7,0.3-4.4,1.3-5,2.4c-1.1,2.1,1.4,6.2,2.7,8.1c3.4,4.6,9,9.4,13.8,11.7c11.6,5.6,22.2,7.5,34.8,6.3c7.5-0.7,14.8-1.6,21.8-5.4
		c6.7-3.7,12.4-8.9,18.2-14c14.5-12.9,22.1-34.5,23-53.9c1.5-30.1-3.2-60.3,3.7-89.9c2.5-10.6,8.5-24.9,18.4-31.5
		c4.3-2.9,11.8-4.1,16.6-1.5c1.7,0.9,3.3,2.5,4.3,4c0.5,0.7,0.9,1.6,1.5,2.4c0.6,0.8,0.3,1.8,1.1,2.6
		C577.2,262.1,578.7,261.8,579.3,262.8C579.7,263.5,578.6,261.7,579.3,262.8z"/>
	<path class="st0" d="M149.5,179.8c1.3,3.4,14.7,5.9,18.2,7.5c3.5,1.6,8.5,5.5,12.7,5.7c4,0.3,3.7-2.9,6-6c1.8-2.6,4.7-5.4,6.8-7.4
		c5.6-5.4,9.4-12.6,17.9-13.7c0,1.7-2.6,2.2-3.4,2.9c-2.4,2.4-3.7,5.4-5,8.4c-1.6,3.7-3.9,7.1-5.4,10.9c-0.9,2.2-2.2,5.7-2.4,8.1
		c-0.3,5.1-0.1,2.1,2.8,4.5c1.6,1.3,4.3,2.3,6.3,3.4c2.3,1.2,5.2,3.1,7.1,4.2c1.9,1.1,4.8,2.9,7,3.6c3.6,1.2,2.9,1,4.8-2.5
		c3.8-7,7.5-13.9,12.7-19.7c2.2-2.5,4.7-4.4,6.9-6.9c2.7-3.1,2.9-2.1,0.1-5.8c-3.8-4.8-6-9.2-8-15.2c-2.8-0.4-7.3,8-8.2,9.8
		c-1,2.2-0.8,2.8-1,5.2c-0.1,1.4-0.1,2.3-0.2,3.5c-0.1,0.5-0.8,4.6-1,5.2c-4.5-3.4-9.4,1.6-5.2-6.8c1.6-3.3,4.1-7.1,6-9.9
		c1.3-1.9,3.9-4.3,5-5.4c0.8-0.8,1.3-0.7,1.7-1.3c2.6-3.2,2.2-5,2.2-9.5c0-8.1,1.3-16.6,4.1-23.8c1.1-2.8,2.9-4.7,5.2-8.4
		c3.3-5.1,8.4-13.7,14.9-17.4c6.7-3.8,16.7-0.2,22.3,3.9c1.5,1.1,5.1,3.5,4,6.2c-1.5,3.8-1.9-0.1-3-1.5c-2-2.6-3.3-4.5-6.6-6.1
		c-7.6-3.9-12.4-2.8-17.6,2.9c-10.8,12-14.5,26.7-13.8,42.7c0.9,1.4,5.8-2.2,6.7-2.5c3.6-1.3,7.6-1.9,11.1-2.5
		c4.6-0.8,8.9-0.4,14,0.6c6.1,1.1,7.2,2.2,6.9-3.2c-0.1-1.4,0.3-4.5-0.5-5.8c-1.3-2.1-4.4-1.6-6.3-2.9c-2.3-1.6-8.8-9.4-4.2-12.1
		c3.6-2.2,5.4,2.6,6.7,4.6c6.2,9.1,17.3,11.7,26,1.7c2.8-3.3,2.6-7.9,4.3-12.2c1.2-3,2.8-5.8,4.1-8.8c0.1-0.2,1.4-0.8,1.7-1.7
		c0.9-2.8-0.3-5.9,1.3-8.8c2,0.1,0.1,7.1,0.3,8c0.5,1.8,2,0.1,2.2,3.4c0.1,1.7-1.5,3-1.9,4.6c-2.1,8.4-0.9,17.7-0.5,26.5
		c0.3,5.9,1.1,12.5,3.6,17.5c1.6,3.2,4.9,8.5,9,9.4c5.1,1.2,8.7-3.4,10.9-6.3c4.7-6.1,8.7-15.2,9.4-22.4c0.3-3.6,0.2-8.1-0.2-11.4
		c-0.6-4.5-2.2-5.9-4.8-9.1c-1.9-2.3-8.4-14.9-0.7-14c3.9,0.4,8.5,12.7,11.6,15.3c3.2,2.7,5.8,3.9,9.6,5c2.8,0.9,8.1,3.6,9.9,1.2
		c0.5-0.7,0.5-5,0.8-6.2c1.2-6.7,4.3-11.9,7.3-17.6c3.4-6.3,7.8-14,14.7-17.4c9.1-4.5,15.8,1.6,15.8,11.1c0,6.2-2.7,11.3-6,16
		c-5.4,7.5-11.2,11.2-19,14.2c-3.5,1.3-4.7,1.1-5,5.4c-0.2,2,0.2,4.3,0.4,5.9c0.7,4.8,2,11,4.2,15.9c4.9,11.1,18.4,18.5,29.8,10.9
		c7.1-4.8,12-11.8,15-19.3c2.3-5.8,3-12.2,3.5-18.5c0.1-1.8,0-3.2-0.2-5.2c-0.5-4.3-4.4-6.5-5.3-10.2c-0.7-2.9,0.2-4.6,3.4-4.6
		c3.9,0,4.9,3.3,5.4,6.5c1.1,7.4-0.4,17.9-2.1,25.1c-3.9,16.9-19.7,37.1-40.2,30.2c-10.9-3.6-18.6-10.2-22.2-21.3
		c-1.5-4.5-1.6-9.3-1.6-13.7c0-4.4,0.2-3.8-3.6-4.3c-1.7-0.3-4.2-1.1-6-1.5c-1.4-0.3-3.2-0.3-4.5-0.6c-2.2-0.6-5.7-3.1-7.8-2.8
		c-1.2,1,0.8,11.6,0.6,13.9c-0.2,2.5-0.5,5.2-1.3,7.6c-0.5,1.6-0.9,2.7-1.5,4.1c-0.4,1.1-2.1,2-2.5,2.9c-0.9,2.2-0.6,3.3-1.7,5.4
		c-1.7,3.3-5.5,8.2-9.6,10.5c-5.5,3-13.5-0.1-17.6-3.8c-9-8.1-11.4-21.2-11.3-33.1c-1.1-0.3-6,4-7.1,4.6c-2,1-3.6,0.9-5.8,1.3
		c-1.2,0.2-4.7,0.6-5.5,1c-2.8,1.2-2.5,0.5-2.5,4.2c0,5.5,2.1,6.9,6.8,9.2c5.8,2.8,10.7,4.8,15.4,10.2c10.1,11.6,10,22.8,6.2,36.9
		c-2.9,11-9.8,20.4-19.7,26.4c-4.5,2.7-8.6,5.2-13.6,6.9c-6.4,2.2-11,2.6-17.9,3.3c-4.7,0.5-9-0.1-14.1-1c-2.2-0.4-9.1-2.7-11.3-1.7
		c-1.6,0.8-3.2,5.7-3.8,7.1c-5.5,13-6.9,27.9-8.4,41.5c-1.1,10.3,0.2,23.3,7.6,30.1c9.8,9,18.3-6.3,21.7-14.2
		c3.1-7.3,3.1-14.8,4.5-22.8c0.8-4.9,2.9-8.5,4.4-13.1c1-3.2,0.2-6,0.8-9.3c1.4-1.2,2,1.9,2.5,1.7c0.9-0.4,2.6-2.5,3.6-2.3
		c3.8,0.6,0.5,6.4-0.3,8.6c-2.7,7.4-4.5,16-4.9,24c-0.3,5.6-1.5,21.6,8.6,18.4c6.8-2.2,10.3-13,12.2-19.1c1.2-3.9,2.9-7.6,4-11.1
		c0.8-2.6,1.7-5.3,2.7-7.9c1.1-2.7,2-5.2,2.9-8c0.4-1.3,1.8-3.4,2-4.7c0.2-1.8-0.5-3.7-0.3-5.7c2-0.6,0.9,1.5,2.1,2.1
		c1.8-0.9,3.7-6.8,4.9-8.5c1.8-2.5,3.6-4.7,5.6-7c3-3.4,5.7-5.9,9-8.8c2.9-2.5,4.9-3.1,8.6-5c1.3-0.7,2.8-2,3.8-2.5
		c3-1.5,7.2-1.4,10-2.9c-0.1,1.2-11.5,5.8-13,6.7c-5.9,3.7-9.7,7.5-14.2,12.6c-4,4.4-7.4,10.8-10.2,16.6c-1.9,3.8-2.6,9.2-3.7,13.6
		c-1.1,4.3-3.1,9.6-4.3,14.5c-1.6,6.6-3.2,12.1-4.5,18.7c-0.8,4-3.5,11.8-2.8,15c7.4,1.8,16.1-1.5,23.8-0.2c3,0.5,6.2,1.3,9.3,1.8
		c2.1,0.3,4,0.5,6.1,0.2c0.8-0.1,1.6-1.9,2.3-1.9c-0.1,0.6,0.2,0.9,0.8,0.8c1.8-1.9,2-5.8,2.7-8.4c1.1-3.8,2.3-7.7,3.5-11.6
		c1.8-5.7,4.8-11.3,6.8-16.9c2.4-6.7,5.6-14.2,8.4-20.1c5.8-12.3,15.6-28,25.6-38.5c7.7-8.1,15.1-13.2,24.3-19.7
		c3.3-2.4,8.2-4.6,13-5.9c2.5-0.7,12.4-1.2,5.8,1.6c-1.2,0.5-4.4,0.4-6.1,0.8c-2,0.5-4.2,1.3-6.4,2.4c-4.8,2.5-9.9,6.4-14.2,9.9
		c-6.2,5.1-12.4,11.7-17.2,18.1c-6.1,8.2-12.8,19-16.3,28.7c-6.3,17-11.1,36.6-16.8,54c-0.9,2.8-4.5,10.3-3.8,13
		c0.2,0.9,2.2,1.9,2.9,2.5c1.7,1.4,4.1,2.7,6,4.4c2.6,2.3,12.6,7.1,12,11.9c4.4-1.2,9.3-7.5,13-10.1c4.5-3.1,10.2-5.7,15.5-5.4
		c5.1,0.2,8.1,3.8,10.1,8c1.4,3,2.4,6.5,2.8,9.8c0.5,3.8-1.1,8.3,0.6,12c3.9-0.8,5.5-7.9,6.9-10.6c1.5-2.8,3.3-5.7,4.8-8.7
		c3.2-6.5,5.3-10.1,7.5-16.3c1.3-3.5,3-8.8,5.4-11.3c8.5-8.8,4.1,4.9,3,7.9c-1.5,4.2-3.2,8.3-4.1,13.5c-1.5,8.6,1.6,19.2,12,13.3
		c5.7-3.2,8.1-11.1,11.1-16.5c1.3-2.2,1.9-3.8,2.4-5.8c0.4-1.5,2-8.4,1.9-8.7c0.5,1.6,1.3,5.7,0.5,7.1c1.2,0,5.6-5.5,6.3-6.3
		c2.1-2.2,4.1-4.6,6.9-6.5c4.4-2.9,10.2-2.9,11.6,3c1.9,7.7-9.6,16.9-15.3,20c-2,1.1-4.2,1.8-6.6,2.8c-5.4,2.2-5.4,5.6-6.8,11
		c-1.9,7.7-5.6,18.6,0,25.4c9.7,11.6,23-9.4,26.4-17.2c2.2-5,4.3-11.3,5.9-15.9c1.1-3,3.3-8.2,3.8-10.1c0.3-1.3-1-5.8,1.7-5.9
		c2.7,1.7-5.6,23.2-6.3,25.1c-2.6,6.8-6,12.2-10.1,18c-4.9,7-11.2,13.4-20.3,10.9c-5.3-1.4-8.9-3.9-11.4-9.1
		c-0.8-1.7-1.2-3.5-1.3-5.9c0-1.4,1.2-14.7,1.6-14.8c-2.5,0.7-4.3,2.8-7.5,2.9c-1.4,0-5-0.6-6.8-1.2c-6.3-2.1-5.7-8.4-7.1-13.8
		c-1.6,0.5-3.6,6.6-4.1,7.8c-1.5,3.4-3.5,5.1-5.5,8.1c-0.5,0.7-0.6,3.2-1.4,4.3c-1.5,2.2-2.3,4-3.8,6.7c-2.4,4.2-4.9,8.5-6.6,13.6
		c-1.1,3.4-2.1,6.5-3.3,9.7c-1.1,3.1-2.8,6.3,0.3,7.6c1.7,0.7,6.8-1.9,9-1.8c0.3,1-24,9.2-26.4,6.7c0-1,4.8-2.5,5.9-4.2
		c0.7-1.2,0.6-2.7,1.1-3.9c1.9-4.8,4.3-9,5.9-13.8c1.8-5.8,4.3-11.8,5.6-17.5c1.8-7.5,3.9-29.8-8-28.1c-4.6,0.7-9.4,3.3-12.6,5.4
		c-2.7,1.8-6.5,4.1-9.2,6.3c-5.5,4.4-1.2,9.5,0.8,15.1c1.7,4.6,2.9,11.5,4.2,17.2c4.3,20.2,2.7,40.1-5.4,59.5
		c-2.1,4.9-5.5,9.2-8,13.8c-2.7,5-4.7,9.5-8,13.8c-8.3,11.1-17.5,22.4-28.7,31.6c-11.3,9.2-27.1,15.1-41.3,18.6
		c-7.7,1.9-11.1,3.5-18.8,4.2c-8.8,0.8-17.7,0.2-27.2,0c-6.4-0.1-14.7-0.9-21.5-3.1c-3.4-1.1-7.6-1.5-10.4-2.3c-2.2-0.7-5.1-2-8-2.4
		c-8.2-1.1-17.8,1.3-25.8,2.4c-4.5,0.6-7.4,1.1-11.4,1.7c-3.3,0.5-11.1,1.2-13.4,0.4c-1.6-0.5-6.4,1-8.3,1c-3.6,0-7.2-0.1-10.9-0.1
		c-10.2,0-20.3-2.4-30.2-4.2c-5.5-1-10.3-0.8-15.5-2.9c-4.1-1.7-11.6-6.2-10.1-11c2-6.7,15.2-9.7,21-10.8c17.9-3.3,38.4-1,56.3,2.9
		c10,2.2,18.4,6.3,27.4,10.1c8.5,3.5,18.4,8.1,27.8,5.5c11.2-3.1,22.2-6.3,32.5-11.4c4.2-2,8.1-4.2,12.4-6.2
		c3.8-1.8,9.1-4.3,13.2-6.8c6.8-4.2,15-10.8,19.7-17.6c3.8-5.5,8.2-11.8,11.3-17.6c2.9-5.5,7-13.8,9.2-19.3
		c7.7-19,15.9-39,19.8-60.4c1.1-5.8,2.8-10.8,4.4-16.4c0.7-2.3,1.2-4.7,1.7-7c0.6-2.3,0.6-4.8,1.3-7.1c0.5-2,3.5-7.3,2.9-9.2
		c-0.8-2.8-8.2-4.6-10.8-4.9c-5.7-0.7-10.2-1.7-15.6-1.4c-1.9,0.1-4.2-0.6-5.9-0.4c-0.8,0.1-4.7,1.1-5.4,1.5c-4.1,1.9-1.7-2.3-4,3.2
		c-1.5,3.5-1.3,8.3-1.9,12.1c-0.5,3.2-1.8,6.7-2.5,10.1c-2.3,10.2-7.5,20.4-12.5,29.6c-2.1,3.8-4.6,7-7.1,10.5
		c-3.4,4.7-7,9.9-11.4,13.5c-6,5-11.9,9.3-18.4,13.4c-2.1,1.3-3.6,2.7-5.2,3.4c-1.9,0.7-3.6,0.9-5.9,1.5c-2.5,0.7-12.2,1.8-13.2,3.1
		c-2.1,2.9,4.5,16.7,5.9,18.8c2.3,3.7,7,8.1,9.2,10.1c14.7,12.6,30.7-3.1,40.2-13.4c2.2-2.4,4.6-5,6.5-8c2.2-3.6,2.8-6.1,5.4-9.7
		c3.2-4.4,4.5-9.4,5.6-14.6c0.9-4.4,0.7-10.2,4.6-12.9c3.8-2.6,6.2-0.9,6,3.8c-0.2,3.6-2.2,6.8-4,10.1
		c-6.7,12.4-13.8,22.9-23.3,33.6c-6.5,7.4-17.8,18-28.4,18.3c-8.6,0.3-16.9-4.8-22.9-10c-5.3-4.7-9.7-9.8-12.3-16.4
		c-0.5-1.2-0.9-2.1-1.3-3.7c-0.3-1.3-0.3-5.4-1.2-6.3c-1-1.1-6.5-1.1-8.1-1.5c-8.2-1.9-14.2-7.4-19.1-13.4
		c-10.7-13.1-6.2-36.1,6.2-45.8c7-5.5,16.5-8.9,25.6-9.6c6.7-0.5,12.4,2,18.7,3.1c0.2,0,2.1,1.5,2.2,1.5c1.6-0.3,3.3-3.9,4.2-5
		c1.2-1.4,2.6-3.5,3.8-4.6c9.3-9,21.6-16.5,33.9-19.9c1.9-0.5,4.3-1.5,6-2.2c3.8-1.6,4.2-1,5.6-4.6c1.3-3.2,2-7.1,2.3-10.6
		c-0.8-1.4-3.7,2.9-3.8,2.9c-2.8,1.7-5.6,1.9-9,1c-2.2-0.6-10.6-5.1-9-8.2c-1.9,0.2-5.7,8.6-7.1,10.5c-1.9,2.4-4.6,7-7.6,8.6
		c-7.9,4.2-18.5-1.5-22.9-9c-11.2-18.8-3-43.6,4.8-62.6c1-2.5,2.5-5.1,3.6-7.8c1.4-3.5,2.2-4.5-2.1-6.3c-2.2-0.9-5.7-2.9-7.7-1.1
		c-1.2,1-1.8,5.4-2.3,6.6c-3.4,7.6-4.3,14.6-7.1,22.8c-1.7,4.9-4.1,8.5-5.2,13.7c-0.9,4.2-1.7,6.7-3.3,10.6
		c-3.3,8.6-5.9,17.4-9.3,26c-2.6,6.7-7.3,13.8-11.5,19.9c-2.1,3-4.7,6.6-7.6,9.4c-1.6,1.6-3.4,3.1-4.8,4.6c-0.9,1-2.3,5.3-4,5.2
		c1-1.7-1.4-2-2.1-2.9c8-8.3,10.1-20.6,13.4-31.4c3.6-11.6,4.6-25.1,6.3-36.4c0.7-4.9,0.6-12.6,0.8-18.6c0.2-5.8,1.8-11.8,2.2-18.2
		c0.5-8.1,2.5-16,3.6-23.9c0.2-1.5,1.2-4.7,0.8-5.9c-0.5-1.4-2.2-2.8-3.5-3.5c-3.4-1.8-3.1-1.5-4.8,1.9
		c-9.6,19.7-9.7,43.2-17.4,64.2c-5.4,14.7-10.8,27.2-17.8,40.4c-1.5,2.8-4.5,5.9-6,8.5c-0.7,1.3-1.6,3.7-2.4,5
		c-2.3,3.8-7,7.8-9.9,11.9c-5.3,7.5-10.7,12.5-18.5,16c-16.4,7.2-32.7,9.4-49.2,3c-16.5-6.3-27.9-23.5-30.4-41.3
		c-2.7-18.5,6.8-38.1,20.2-50.1c15.8-14.2,41.5-18.4,58.7-3.5c5.3,4.6,6.7,7.2,7,13.8c0.1,3.4,0.4,7.1-0.2,10.5
		c-0.4,2.4-0.9,3.7-1.8,6.2c-0.4,1-1.2,3.8-1.9,4.6c-0.4,0.6-1.8,0.5-2.2,1c-0.9,1.2-1.4,3-2.5,4.5c-2.9,4.3-7.9,6.1-12.3,6.9
		c-5.8,1-11,0.2-16.2-2.7c-3.4-1.8-10.3-6.7-9.5-11.6c0.3-1.7,2.4-4.2,4.4-4.4c2.8-0.2,3,1.2,4,3.5c2.7,5.8,3.7,12.3,11.2,14
		c10.3,2.4,19.7-9.2,23.2-17.1c2.1-4.8,2.6-14,1.1-19.5c-2.2-8.3-12.7-14.7-20.8-16.3c-10.7-2.1-22.5-1.6-32.3,4.8
		c-19,12.5-24.2,38.8-19.1,59.1c2.6,10.3,7,20.6,15.2,28.4c11.6,11,25.4,12.3,40.2,8.8c8.7-2.1,16.9-5.3,23.2-11.6
		c2.2-2.2,4.9-5.2,6.5-7.4c0.3-0.4,1.5-2.6,2.3-3.6c2-2.7,5.2-5,7.4-7.5c1.4-1.7,2-5.1,3.4-7.2c1.7-2.5,3.2-4.4,4.4-6.7
		c1.5-2.9,2.8-6.9,4.8-10.5c4.6-8.2,9.3-17.7,12.6-27.2c7.5-21.7,9.4-47,18.4-68.1c2.5-5.9-0.7-6-5.6-8.7
		c-5.2-2.7-10.3-5.9-15.8-8.5c-2.5-1.2-7.1-5.2-9.8-4.3c-1,0.3-2.8,4.8-3.5,5.7c-2.4,3.1-5.3,5.7-7.7,8.8c-4.9,6-9.4,10.6-15.6,15.6
		c-7.1,5.7-15.2,10-22.4,15c-7.6,5.2-22.2,9.9-31.7,10.9c-8.1,0.3-15.9,0.6-24.6-0.1c-7-0.6-10.5-1.8-16.8-4.5
		C13.2,231.4,7,219.6,9.6,207.9c3.8-17,24.7-27.1,40.6-30.6c24.9-5.4,47.3-8.5,73.5-2.7c3.6,0.8,7.2,1.5,10.7,2.3
		c5.6,1.4,7.2,3.1,10.1-2.1c2.7-4.9,3.8-10.7,5.9-15.9c1.8-4.8,3.4-9.1,5-13.8c2.3-6.6,2.3-6.5-5-6.8c-15.1-0.7-31.1-2.3-45.3-7.9
		c-4.6-1.8-8.1-4.1-12.1-5.9c-2-0.9-4.5-2.5-6.3-3.8c-4.5-3.3-10.3-7.8-14.7-12.6c-6.2-6.8-10-19.3-11.1-28.3
		c-1.2-10,0.8-20.5,6.5-28.6c13.2-18.9,33.4-30.9,56.5-31.8c13.9-0.6,34,8.1,35.2,23.9c-4.4,0-2.2-1.4-3.2-4
		c-0.5-1.3-2.2-3.5-3.1-4.8c-2-3-4.7-6.3-7.5-8c-8.5-5.1-17.5-5.6-27.1-4.9c-11.4,0.8-21.2,7.3-30,15.5
		c-8.4,7.9-11.8,16.3-14.9,27.5c-5.4,19.2,0.1,38.5,14.1,51.7c6.7,6.3,16.6,12.1,25.9,15.2c8.7,2.9,18.7,5.2,28,5.5
		c4.5,0.2,14.7,1.7,17.2-1.2c2.8-3.5,3.5-11.8,5.1-16.2c1.5-4.1,3.2-8.4,4.7-12.3c1.9-5,3.3-9.9,5.5-14.7
		c4.1-9.3,7.4-16.2,11.9-24.2c8.8-15.7,17.3-32.2,31.3-43.3c15.3-12.1,45.3-29.2,58.7-5.3c5.5,9.8,3.5,24.2,0.3,35.2
		c-1.1,3.6-2.4,6.9-4,10.4c-2.3,4.9-4.2,11.4-8,15.5c-2.1,2.2-3.4,3-5,5.4c-1.8,2.7-5,5.7-6.9,7.7c-3.3,3.4-7.3,7.4-10.7,10.5
		c-6.7,6.1-13.7,10.1-21,14.9c-11,7.2-25.4,11.6-38,15.3c-3.4,1-10.1,0.9-12.8,3.2c-2.9,2.4-3.8,8.7-5.2,12c-1.5,3.4-3.6,6-4.9,9.4
		c-1.1,2.7-1.8,5.3-3,7.8c-1.1,2.2-2.1,4.3-3.4,6.7C152,175.6,149.8,177.9,149.5,179.8C150.1,181.4,149.6,179.3,149.5,179.8z
		 M174.6,135c4.7-0.2,9.3-3.1,13.8-4.2c5-1.2,10.8-4.1,15.5-5.9c9.1-3.4,17.3-8.8,25.1-14.4c16.7-12.1,37.2-30.2,42.7-50.9
		c2.5-9.4,5.5-19.4,4.3-29.6c-0.8-7-4-13.7-10.2-18.2c-4.4-3.2-7.5-1.9-12.5-1.2c-4.8,0.7-8.6,0.7-12.8,2.9
		c-2.6,1.4-5.4,2.9-8.1,4.7c-5.2,3.5-11.3,6.5-15.7,11.6c-4.3,5-7.3,11.2-10.6,16.8c-2.5,4.3-4.9,8.2-6.9,12.8
		c-3.7,8.6-7.1,15.4-10.9,24.5c-2.4,5.7-4,11.3-6.3,17.2c-2.3,5.7-4.3,11.7-6.3,17.6c-1.7,5.2-5,10.7-4.6,16.3
		C172.4,135,173.5,135,174.6,135C175,135,173.8,135.1,174.6,135z M404.2,84.3c-6.8-1.7-12.5,4.6-14.7,10c-3.2,7.9-9.5,16.5-7.1,27
		c1.2,5.1,3.1,2.9,6.7,1.1c1.1-0.5,2.9-1.6,3.8-2.1c4-2.5,7.2-5.2,10.1-9.2c2.3-3.3,5-6.7,6-10.7C409.8,96.3,409.4,85.6,404.2,84.3
		C403.9,84.3,404.7,84.5,404.2,84.3z M280.6,149.3c-1.6-1.9-12.8-1.4-16.1-1.5c-6.1,0-11.3,1.5-16.7,3.8c-5.5,2.3-4.8,5.7-3.9,11.3
		c0.4,2.6,0.8,4.7,1.5,7.3c1.8,6.8,2.7,7.1,8.8,3.7c6.3-3.5,13.4-6.9,20.4-8.1c2.6-0.4,5.1-0.1,6.7-2.3c0.9-1.3,1.5-5.3,1.7-6.7
		c0.1-0.8,0.3-2.8,0.2-3.9C282.7,150.5,282.2,151.3,280.6,149.3C280.4,149.1,280.8,149.5,280.6,149.3z M285.2,152.2
		c0.7,2.8-0.1,10.1-1.7,12.6c4-0.2,7.7,0.9,10.9,2.9c1.6,1,3.5,2.8,4.9,4.4c3.9,4.7,2.3,4.2-2,6.5c-0.7-0.5-2-4.9-2.9-6.3
		c-2.4-3.4-5.1-6.7-9.6-5.9c-3.8,0.7-2,0.3-3.5,3.1c-1.1,2.1-2.5,5.3-4.5,7.4c-3.3,3.4-10.4,8.6-15.5,9.2c-4,0.5-7.9-2.2-11.3-3.4
		c-2.8-0.9-2.5-1.7-6.1,1.6c-4.5,4.2-8.4,8.3-11.7,13c-1.6,2.3-3.4,4.9-4.4,7.6c-0.5,1.2-0.7,3-1.3,4.2c-0.4,0.9-2.4,1.7-2.5,2.9
		c-0.3,2.7,1.3,3.9,3.4,5.4c0.7,0.6,3.6,2.1,4.2,2.3c4.9,1.4,3.2,0.7,5.8-3.6c3.5-5.8,8.6-10,12.5-15.4c4.5-6.3,10.5-10.8,16.8-13.9
		c2.1-1,14.9-4.9,16.8-2.9c0.3,2.6-9.5,1.9-11,2.4c-2.3,0.7-4.7,2.9-7.4,4c-6.9,2.8-8.3,6.7-13.1,12.5c-4,4.8-8,10.6-10.7,15.7
		c-2.9,5.7-0.2,6.4,5.7,8.6c2.7,1,5.5,1.5,8,2.1c14,3.2,26.9,1.2,39-7.1c13.8-9.6,23.8-32.7,17.4-48.3c-2.1-5.2-6-11.3-10-14.5
		c-2.1-1.8-4.5-2.9-6.9-4.2C293.7,154.8,284.6,149.6,285.2,152.2C285.2,152.4,285.1,151.9,285.2,152.2z M274.3,167.3
		c-4.2,0.7-8.7,3-12.1,4.6c-4.8,2.2-16.4,5.6-7.5,10.9c6.5,3.8,13.7-1.2,18.2-5.2c3.6-3.2,4.2-6.5,6.5-10.7
		C277.7,167.1,276,167.3,274.3,167.3C273.7,167.4,276,167,274.3,167.3z M139,181.1c-18.1-6.5-43.2-9.6-60.7-7.5
		c-11.8,1.4-25.2,3.6-35.8,7.3c-9.7,3.4-15.6,7.7-23.7,14c-9.7,7.6-10.3,22.5-3.8,32.3c3.2,4.8,6.5,6.1,10.8,8.2
		c1.5,0.7,2.5,1.5,4.4,2.2c4.1,1.6,8.1,0.5,12.5,0.9c7.8,0.8,14.7,1.3,22.2,0.8c10.3-0.7,24.1-6.7,33.3-11.7
		c8.5-4.7,17.1-10.3,23.9-17C124.8,208,144.1,182.9,139,181.1C138.6,181,139.6,181.3,139,181.1z M194.3,188.2c0.9-2.4,2.9-6,3.8-8.8
		c-0.4-1.6-5.8,4.6-6.2,4.9c-1.3,1.4-1.9,1.3-3.1,3.2c-0.6,0.9-2,3.9-2.3,4.9c-0.5,2.1-1.8,1.5,0.5,3.8
		C192.4,201.4,193.1,191.6,194.3,188.2C194.3,188.2,193.2,191.3,194.3,188.2z M213.6,223c-4.5-2.8-9.1-5.7-13.6-8.2
		c-1.4-0.7-6.4-4.2-7.5-3.7c-2.9,1.2-1.5,9.2-1.6,12.1c-0.4,10.6-0.3,21.8-0.3,31.8c-0.1,14,0.2,27.5-3.6,40.9
		c-2,7.3-5.1,13.8-7.7,19.8c-1.4,3.1-2.2,6.5-3.7,9.4c-1.7,3.3-5.5,6.4-6.4,10.5c1.4,0.6,10.3-10.7,11.3-12.1
		c2.4-3.3,4.1-7.9,5.9-11.7c3.9-8.5,7.4-17.4,10.5-27.1c2.8-8.7,4.3-15.3,7.6-23c2.5-6,4.3-13.8,6-19.4c0.9-3,2.2-6.5,3.5-9.7
		C215.7,228.5,218,225.8,213.6,223C213.3,222.8,214.1,223.3,213.6,223z M453.6,328.5c1.9-1.9,6.4-2.7,8.8-4.2c1.6-1,3.7-3.2,5-4.6
		c2.5-2.8,5.6-7.5,6.4-11.1c1-4.6,0.3-7-4.2-5.5c-3.8,1.2-6.2,4.5-8.2,7.9c-1.8,3.2-3.7,6.7-5.3,9.5c-1.2,2-4.1,5.7-3.8,8.4
		C453,329.4,453.4,329.3,453.6,328.5C454,328.2,453.4,328.7,453.6,328.5z M272.2,316.4c-4.9,1.5-9.8,2.1-14,4.5
		c-3.1,1.8-6.1,4.1-9.5,4.3c-0.3,2.2-4.1,3.1-5.9,4.6c-2.9,2.5-3.8,4.3-5.9,6.3c-3,2.8-6.3,4.5-8.5,8.3c-2.6,4.6,0,4.9,4,8.6
		c2.1,2,9.9,7.5,9.6,10.7c-0.2,2.3-5.5,6.5-7.3,5.9c-2.2-0.7-3.2-7.9-5.1-10.5c-1-1.3-2.9-5.2-4.4-5.9c-2.7-1.2-1.1-1-3.4,2.1
		c-1.1,1.5-2.7,2.8-3.8,4.6c-2.7,4.8-5.2,10.4-6.7,15.9c-0.8,3.1-1.9,6.6-2.9,10.1c-1.1,3.4-1.5,7.6-1.7,11.1
		c-0.1,2.5-1.2,10,0.3,11.9c4.1,5,24.7-5.4,28.9-8.5c3.7-2.7,8.5-7.2,11.4-10c3.5-3.5,5.4-7.2,8.3-11.2c13-18.3,15-41.8,20.2-63.6
		C275.8,314.7,272.5,316.3,272.2,316.4C271.6,316.6,273.4,316,272.2,316.4z M334.6,395.1c0.8-11.8,5.1-24.5,10.1-35.2
		c1.4-3,3.3-6.1,5.3-8.7c2.1-2.7,7.7-8.1,7.3-12.1c-0.5-5.4-6.8-8.7-10.2-11.6c-1.4-1.2-5.1-6.2-7-6.2c-3,0-2.4,2.9-2.9,5.4
		c-1.1,5.9-3.3,11.2-5.1,16.8c-3,9.3-4.9,19.3-7.9,28.4c-6.3,19.6-15.6,39.1-25.4,56.8c-9,16.2-19.9,34.2-38.7,44.2
		c-9.2,4.9-15.8,9.3-24.8,13.3c-6.1,2.8-13.5,5.7-19.3,7.2c-3,0.8-4.8,1.5-7.3,2.2c-2.5,0.7-7.5,3.2-10.2,2.8
		c-1.1,2.7,17.9,4.8,18,5c-0.3,0.9-2.3-0.2-2.5,0.8c4.3,0,8.7,2.1,13.1,2.3c3.7,0.2,7.7,0.3,11.2,0.6c2.9,0.3,5.9,0.8,8.4,0.8
		c7.8,0,16.1-0.5,24-3c13.1-4.1,25.3-10.9,36-18.5c6.2-4.4,11.7-11.6,17.5-17.5c5.9-5.9,11.5-14.6,16.3-21.8
		c8.4-12.4,12.9-27.4,17.6-41.5c3.5-10.6,6-19.3,5.2-30.5c-0.3-3.9,0.2-8.7-0.3-12.1c-0.2-1.2-4.1-20.2-5-19.2
		c-6.2,7.1-10.1,14.3-13.4,23.1c-1.7,4.4-3.4,7.8-4.5,12.3c-0.8,3-1.2,4.7-1.9,7.1c-0.5,2.1-1,4.5-1.3,6.8
		C336.3,397.3,334.2,401.4,334.6,395.1C334.8,393.4,334.5,396.3,334.6,395.1z M219.9,346.6c-2.4-2.1-6-2.4-9-3
		c-2.7-0.6-5.2-1.1-7.7-1c-6.1,0.4-11.9,2.9-16.9,5.1c-9.5,4.3-16.7,13.3-18.8,23.6c-2.4,12.4,3.5,26.1,13.4,33.1
		c2.4,1.7,5.9,3.5,8.8,4.4c1.3,0.4,3.3,1,4.6,0.8c0.6-0.1,2.9,0.4,3.4-0.2c0,0-0.4-7.5-0.4-8c0.4-9.2,4.1-18.6,8-26.4
		c2.3-4.6,5.3-9.9,8.2-14.4C215.2,357.7,223.9,350.1,219.9,346.6C219.2,345.9,220.6,347.2,219.9,346.6z M180.9,497.3
		c-3.7-2.2-8.7-2.7-13-4.6c-4.8-2.1-9.2-4.2-14.2-6c-13.5-4.7-25.8-6.8-40.4-8.5c-8.3-0.9-16.9,0.2-24.1,1.5
		c-4.1,0.7-9.3,1.5-13.4,3.8c-1.7,0.9-8.1,4.7-7.5,7.1c1.8,0,2.4,2.6,3.3,3.5c2.5,2.5,4.9,3.6,8,4.9c2.5,1,4.3,1.2,7.1,1.7
		c5.4,0.8,11.5,2.8,17.7,3.6c9.8,1.2,19.7,0.6,29.3,0.8c3.5,0.1,29.2,0.7,30-3.1c-0.7,0-7,0.2-6.7-1.3c4.1-1,10.2,0.9,14.2,0.6
		c3.2-0.2,6.2-0.2,9.6-0.7C185.7,499.9,185.1,499.9,180.9,497.3C180.7,497.2,182,498,180.9,497.3z"/>
</g>
</svg>
